PathFileType	3	(X/Y/Z)	D:\minhoCalibration\240510\subject5_KPNP\preferred\preferred06.trc
DataRate	CameraRate	NumFrames	NumMarkers	Units	OrigDataRate	OrigDataStartFrame	OrigNumFrames
200.0	200.0	36	10	mm	200.0	241	159	
Frame#	Time	Left_Ankle_Outer1			Left_Ankle_Inner1			Left_Knee_Outer1			Left_Knee_Inner1			Left_Wrist1			Right_Wrist1			Right_Knee_Inner1			Right_Knee_Outer1			Right_Ankle_Inner1			Right_Ankle_Outer1			
		X1	Y1	Z1	X2	Y2	Z2	X3	Y3	Z3	X4	Y4	Z4	X5	Y5	Z5	X6	Y6	Z6	X7	Y7	Z7	X8	Y8	Z8	X9	Y9	Z9	X10	Y10	Z10	
241	1.195	-307.46051	86.642776	-678.93066	-351.20724	103.90289	-658.20355	-144.09915	529.81604	-578.87933	-224.76643	520.20721	-531.6886	-127.53764	1002.0157	-742.79572	-411.97556	1131.7643	-620.19916	-530.84406	738.54919	-253.55151	-589.099	816.82184	-263.9278	-603.91345	543.85223	-668.63275	-648.96912	629.42224	-681.06354
242	1.2	-308.55841	87.262222	-678.57758	-352.12643	104.79677	-656.39154	-142.39011	530.07843	-581.68823	-221.06902	520.56494	-531.69464	-130.26358	1001.067	-746.77802	-402.31189	1137.8539	-611.96863	-521.55127	750.38861	-238.52496	-577.37274	829.9577	-247.66544	-612.30145	559.96442	-652.151	-655.73297	646.78778	-662.79413
243	1.205	-309.88293	87.98156	-677.8313	-352.73544	105.64822	-655.56677	-140.40355	530.20972	-584.43085	-217.20071	520.46826	-531.92487	-133.27208	999.81995	-751.0954	-397.0947	1142.7228	-603.93256	-511.83044	761.80035	-223.87151	-565.62427	843.50519	-231.52008	-621.1781	576.3562	-635.34924	-662.47394	664.31519	-644.21991
244	1.21	-311.90985	87.745041	-676.82373	-353.84125	106.49589	-653.26172	-139.44269	529.92096	-586.96942	-213.59386	520.4458	-531.8833	-136.951	998.56024	-754.94513	-391.63248	1147.2463	-596.9917	-501.45209	773.33203	-209.89957	-553.22174	856.71979	-216.29355	-630.07782	592.8548	-618.11163	-669.13141	682.18866	-625.35535
245	1.215	-312.922	88.676735	-676.86584	-354.59982	107.10787	-652.45386	-137.85532	530.12018	-589.87323	-210.20987	520.34894	-531.70239	-140.79343	997.06842	-758.70782	-386.565	1151.2708	-590.72174	-490.41049	784.66101	-196.31953	-539.48102	869.8479	-201.79263	-639.50818	609.56586	-600.17737	-675.55908	700.14258	-606.14392
246	1.22	-314.64737	89.509201	-675.92389	-356.05334	107.97879	-649.83679	-136.49391	530.17603	-592.53503	-206.96352	520.27332	-531.60754	-145.42755	995.27118	-761.70642	-381.14133	1154.4684	-584.03357	-479.36438	795.83911	-183.80049	-525.50446	882.4483	-187.92644	-648.86206	626.39899	-581.85791	-682.02734	718.2655	-586.32727
247	1.225	-316.71164	89.51767	-675.11194	-356.70389	108.37421	-648.22858	-135.67415	530.07153	-594.92047	-203.81364	520.02411	-531.48962	-149.92915	993.27496	-763.68634	-374.23279	1158.6337	-579.41125	-467.42163	806.55908	-171.5522	-510.61255	894.85669	-174.70981	-658.09607	643.23364	-563.12567	-688.2077	736.45581	-566.14307
248	1.23	-319.30951	89.800987	-673.46893	-358.52374	108.96857	-645.58557	-134.99094	530.0293	-597.16895	-201.02176	520.4483	-530.12323	-154.78841	991.76324	-766.85516	-368.88794	1162.0933	-573.91797	-455.32538	816.95575	-160.15215	-495.21124	906.84467	-162.30742	-667.89172	660.64502	-543.60767	-694.25525	754.78082	-545.34674
249	1.235	-321.28598	90.275978	-672.36584	-360.07443	109.87509	-642.75037	-134.95921	529.76764	-599.06079	-198.3286	520.30835	-530.09802	-159.84366	989.14453	-768.42871	-362.1918	1164.6075	-571.19971	-442.93207	827.00531	-149.45343	-479.31143	918.09222	-150.91351	-677.46417	677.9967	-522.96021	-700.10944	773.17792	-523.69934
250	1.24	-324.01038	90.429459	-670.56482	-361.63998	110.30882	-640.47174	-134.93747	529.9223	-600.94214	-196.24059	520.2713	-529.82513	-165.18553	987.57495	-770.82281	-356.24072	1167.7026	-567.10474	-429.90857	836.45508	-139.46298	-462.7233	928.91663	-140.51132	-686.93201	695.12433	-501.79077	-705.7984	791.61377	-501.49231
251	1.245	-325.99973	90.866104	-669.46045	-363.30588	110.75446	-637.97839	-135.40129	529.92255	-602.43805	-194.33893	520.06213	-529.69818	-170.70213	985.82513	-773.05389	-350.44833	1170.5663	-563.30896	-417.14777	845.78015	-130.0687	-445.51654	938.65979	-131.69125	-696.27338	713.11389	-478.37875	-711.35901	810.04883	-478.36945
252	1.25	-328.50259	91.000206	-667.90057	-364.90952	110.72904	-636.36877	-136.52281	529.57898	-603.63733	-192.99872	519.91589	-529.48486	-176.30281	984.16461	-775.23468	-344.99261	1173.17	-559.66925	-403.76239	854.15302	-122.09995	-428.53036	948.74799	-122.82608	-705.13409	730.63501	-454.36359	-716.71997	828.45447	-454.26663
253	1.255	-331.08212	90.930855	-666.39185	-366.86597	110.81671	-633.88043	-137.49281	529.79169	-604.85577	-192.54988	520.02277	-528.76129	-181.85985	982.42566	-777.16925	-339.38046	1175.3549	-556.67578	-390.55734	862.30365	-114.66414	-411.78357	957.70221	-115.30426	-714.09271	748.59949	-428.83157	-721.78918	846.77966	-429.16248
254	1.26	-333.70465	90.882652	-664.61438	-368.84921	111.4939	-630.66388	-139.04297	529.53827	-605.75531	-192.14014	519.68024	-528.69403	-187.3448	980.31543	-778.65839	-334.2063	1177.2601	-553.68878	-377.30618	870.02618	-108.0313	-394.04077	965.93701	-108.98392	-722.4054	766.39008	-402.05951	-726.59308	864.93439	-402.81491
255	1.265	-336.35016	90.674446	-663.08466	-371.45193	110.45811	-628.84009	-140.87584	529.53516	-606.45581	-192.49899	519.51355	-528.12488	-193.18221	978.25543	-779.86292	-328.95471	1179.3574	-550.521	-364.41974	877.16858	-102.22848	-376.98434	973.6604	-103.66456	-729.69672	784.17145	-374.02899	-730.90656	882.76532	-375.17087
256	1.27	-338.77975	90.369919	-661.68091	-373.14755	110.15269	-627.34613	-143.07277	529.2063	-606.83527	-193.36978	518.9848	-527.84564	-198.36514	976.38715	-782.10645	-323.71896	1180.6989	-549.53601	-351.84811	883.94104	-97.143425	-360.14417	980.57166	-99.362396	-737.07635	801.63477	-343.8696	-734.68097	900.56409	-346.49823
257	1.275	-341.20395	89.933617	-660.4671	-375.52728	109.81984	-624.67505	-145.07123	528.96918	-607.35193	-194.53081	518.47675	-527.46594	-203.9426	974.83893	-783.6709	-319.3024	1182.0413	-547.36804	-339.58224	890.29926	-92.768806	-343.82886	986.94177	-96.045197	-743.31287	818.94171	-311.98386	-737.68127	918.04932	-316.4129
258	1.28	-343.64996	89.210075	-659.33881	-377.2854	108.87833	-624.07574	-147.39561	528.58643	-607.61932	-196.17673	518.02844	-527.08838	-209.49908	973.57574	-784.02869	-314.59164	1183.4033	-546.02411	-328.09048	896.42383	-89.13398	-328.59778	993.02942	-93.564934	-748.17609	835.85797	-279.73944	-739.83124	935.11475	-285.293
259	1.285	-345.78189	88.621201	-658.48901	-379.15341	108.04012	-622.8396	-149.90482	528.11908	-607.70721	-197.88022	517.34436	-526.89075	-214.31993	972.16748	-784.68573	-310.49045	1184.1188	-544.5788	-317.25793	902.44208	-86.040558	-314.25925	998.74823	-91.919891	-751.66583	852.20123	-245.84889	-741.01141	951.53394	-252.82172
260	1.29	-347.72531	87.674805	-657.76227	-381.26425	107.17161	-620.83209	-152.34569	527.48932	-607.84497	-199.94675	516.77533	-526.69171	-219.31895	970.63849	-785.11633	-306.38361	1185.0547	-542.84906	-307.42538	908.31354	-83.41748	-300.9791	1004.2917	-91.118202	-754.09515	867.97235	-205.58382	-741.27838	967.35492	-219.3618
261	1.295	-349.48593	86.73867	-657.08624	-382.5903	106.50873	-619.9032	-154.72447	526.95538	-608.05139	-201.84569	516.19818	-526.66846	-224.70193	969.10522	-784.177	-303.05774	1185.8832	-541.48962	-297.81061	914.02936	-81.192299	-289.1796	1009.6396	-90.449371	-755.15594	883.98511	-164.75269	-740.24768	982.37207	-184.42043
262	1.3	-350.95029	85.840103	-656.58618	-384.09692	104.84396	-619.76221	-156.97343	526.49908	-608.32007	-204.0338	515.49432	-526.68457	-229.58873	967.14557	-784.27271	-299.92136	1186.2736	-541.04614	-289.84515	920.18048	-79.536606	-278.50821	1015.0084	-90.619919	-753.80194	900.13904	-128.86853	-737.81012	996.63031	-148.17839
263	1.305	-352.25589	84.93634	-656.1684	-385.26685	103.84849	-619.14929	-158.99197	525.92206	-608.68408	-205.69945	514.81396	-527.03101	-233.55322	966.39453	-784.84747	-296.50562	1186.7477	-540.31842	-283.11404	926.36346	-77.851761	-269.42056	1020.3769	-91.206482	-749.87573	914.74841	-86.439392	-733.97455	1010.2208	-110.90215
264	1.31	-353.52698	84.04248	-655.63489	-386.46875	102.90083	-618.37421	-160.77721	525.40063	-609.25226	-207.55704	514.38007	-527.24408	-237.53957	965.6908	-785.23187	-293.69098	1187.1506	-540.198	-276.6488	932.76447	-77.013527	-262.02344	1025.988	-92.161568	-742.71948	929.25916	-44.089336	-728.159	1023.1462	-72.090454
265	1.315	-354.5975	83.268585	-655.16565	-386.93414	102.46873	-617.55499	-162.4951	524.82306	-609.71899	-208.79521	513.7207	-527.89612	-241.80383	964.45874	-784.87335	-291.24396	1187.1205	-540.02765	-271.87302	939.80884	-76.352875	-256.2478	1031.8749	-93.320854	-733.08008	941.72473	0.3458879	-720.43457	1035.5131	-31.945042
266	1.32	-355.8374	82.434319	-654.54456	-388.20456	101.42596	-616.73621	-163.49043	524.58374	-610.80658	-209.67099	513.15533	-528.69653	-245.53352	963.37585	-784.90613	-289.11209	1186.8776	-539.49408	-268.60873	946.79388	-75.751976	-252.24561	1037.6754	-94.984032	-720.82916	954.88641	47.09882	-710.23029	1047.3981	9.3099785
267	1.325	-356.86365	81.846733	-654.08868	-389.04272	100.91232	-615.7666	-164.43054	524.24969	-612.00867	-210.27742	512.65002	-529.59302	-248.72122	962.73096	-785.12817	-287.11636	1187.2048	-538.63403	-266.51825	954.07526	-75.596588	-250.11954	1043.6162	-96.639435	-704.09821	967.66711	92.128143	-697.6214	1058.755	51.304565
268	1.33	-357.87369	81.327736	-653.46863	-389.95541	100.10113	-614.92786	-165.74362	523.72394	-612.82928	-210.54164	512.28174	-530.61169	-251.85248	962.04504	-785.00232	-285.37531	1187.0483	-537.87531	-266.09296	961.52301	-75.940117	-249.96053	1049.4401	-98.425575	-686.58972	979.23224	136.27493	-682.31018	1069.87	93.627937
269	1.335	-358.94928	80.912041	-652.74213	-390.23895	99.806641	-613.69562	-165.89369	523.60486	-614.78931	-210.53793	511.93051	-531.66901	-254.58527	961.46289	-784.94421	-284.3259	1186.4736	-538.75732	-267.56992	968.82953	-77.556602	-251.86139	1055.0879	-100.12881	-663.25323	989.78229	178.99576	-663.42645	1080.2642	135.87251
270	1.34	-359.90369	80.527786	-652.00439	-390.48657	100.024	-612.13916	-166.35765	523.4118	-616.40094	-210.22954	511.6427	-532.828	-256.87433	961.26404	-784.70288	-283.4549	1186.1229	-537.71014	-271.54703	975.39447	-79.324249	-255.73462	1060.5688	-101.6941	-635.00079	1000.4514	218.55708	-641.24799	1090.1825	176.98914
271	1.345	-361.00626	80.249832	-651.11652	-391.42352	99.39537	-611.26373	-166.74734	523.24561	-618.10632	-209.64919	511.52615	-534.01056	-259.48196	960.44495	-783.61963	-282.94687	1185.8986	-537.79767	-276.94547	981.63965	-80.525299	-262.06445	1065.9756	-103.00876	-604.92993	1009.4774	258.71506	-615.3288	1098.9323	216.58411
272	1.35	-362.0231	80.112312	-650.37482	-392.29254	99.402161	-609.14209	-167.15358	523.05078	-619.92828	-208.77156	511.37805	-535.1955	-261.35214	960.27283	-782.6095	-282.76379	1185.8651	-537.08533	-283.52139	986.85156	-80.460129	-270.92215	1071.2406	-103.9409	-568.91425	1016.9768	291.74652	-585.59528	1106.3307	252.52495
273	1.355	-363.12173	79.984047	-649.50824	-392.4725	99.321404	-608.19348	-167.7049	523.00061	-621.70624	-207.8172	511.31915	-536.21576	-262.11279	960.95197	-782.90302	-282.85513	1185.8367	-536.14166	-290.46933	992.07324	-79.211609	-281.20944	1076.7426	-104.37989	-529.88525	1022.1929	320.61673	-552.44867	1111.4872	283.9856
274	1.36	-364.00244	79.944603	-648.81183	-392.80365	99.57589	-606.43835	-168.57478	522.97205	-623.31873	-206.76004	511.26535	-536.9942	-263.63031	961.11829	-780.20844	-283.4028	1186.5822	-533.4234	-298.7338	997.7132	-76.639824	-291.4054	1082.7729	-104.08611	-487.54926	1025.6967	342.22205	-516.15912	1113.3829	309.71637
275	1.365	-364.78778	80.078239	-648.32971	-393.2052	100.05517	-604.97229	-169.42181	523.15063	-624.64417	-205.69209	511.25623	-537.46332	-263.93457	961.11218	-778.18341	-284.10715	1187.3906	-532.24591	-305.46603	1004.1642	-74.546417	-299.76266	1090.0443	-103.36901	-451.22275	1027.9163	356.29175	-481.4437	1112.2219	326.97882
276	1.37	-365.44681	80.319778	-647.82092	-393.16388	100.38837	-604.26117	-170.49229	523.4032	-625.50922	-204.82652	511.31046	-537.49493	-264.86475	961.06555	-773.58667	-285.30161	1188.5336	-531.27515	-309.7962	1010.5336	-72.675308	-305.65488	1097.1946	-102.00539	-429.6011	1023.5986	354.24005	-464.26367	1112.2268	329.95993
